<svg xmlns="http://www.w3.org/2000/svg" viewBox="0 0 485 485" fill="#fff" xmlns:v="https://vecta.io/nano"><path d="M413.974 71.026C368.17 25.225 307.274 0 242.5 0S116.83 25.225 71.026 71.026 0 177.726 0 242.5s25.225 125.67 71.026 171.474S177.726 485 242.5 485s125.67-25.225 171.474-71.026S485 307.274 485 242.5s-25.225-125.67-71.026-171.474zM242.5 455C125.327 455 30 359.673 30 242.5S125.327 30 242.5 30 455 125.327 455 242.5 359.673 455 242.5 455zm0-155.2L135.6 193.228l-21.178 21.248L242.5 342.148l128.1-127.672-21.178-21.248z"/></svg>