<?xml version="1.0" encoding="UTF-8"?>
<svg enable-background="new 0 0 480 480" version="1.1" viewBox="0 0 480 480" xml:space="preserve" xmlns="http://www.w3.org/2000/svg">

	
		
			<path d="m472 432h-24v-152c-3e-3 -4.418-3.588-7.997-8.006-7.994-2.607 2e-3 -5.05 1.274-6.546 3.41l-112 160c-2.532 3.621-1.649 8.609 1.972 11.14 1.343 0.939 2.941 1.443 4.58 1.444h104v24c0 4.418 3.582 8 8 8s8-3.582 8-8v-24h24c4.418 0 8-3.582 8-8s-3.582-8-8-8zm-40 0h-88.64l88.64-126.62v126.62z"/>
			<path d="m328 464h-94.712l88.056-103.69c0.2-0.238 0.387-0.486 0.56-0.744 16.566-24.518 11.048-57.713-12.56-75.552-28.705-20.625-68.695-14.074-89.319 14.631-7.821 10.885-12.027 23.95-12.025 37.353 0 4.418 3.582 8 8 8s8-3.582 8-8c-3e-3 -26.51 21.486-48.002 47.995-48.005 10.048-1e-3 19.843 3.151 28.005 9.013 16.537 12.671 20.388 36.007 8.8 53.32l-98.896 116.5c-2.859 3.369-2.445 8.417 0.924 11.276 1.445 1.226 3.277 1.899 5.172 1.9h112c4.418 0 8-3.582 8-8s-3.582-8-8-8z"/>
			<path d="m216.18 424.15c0.167-4.415-3.278-8.129-7.693-8.296h-3e-3c-104.37-3.874-188.14-87.493-192.2-191.86h31.72c4.418 0 8-3.582 8-8s-3.582-8-8-8h-31.72c4.003-104.18 87.54-187.71 191.72-191.71v23.712c0 4.418 3.582 8 8 8s8-3.582 8-8v-23.712c102.75 3.974 185.69 85.34 191.62 188l-31.2-31.2c-3.178-3.07-8.242-2.982-11.312 0.196-2.994 3.1-2.994 8.015 0 11.116l44.656 44.656c0.841 1.018 1.925 1.807 3.152 2.296 0.313 0.094 0.631 0.172 0.952 0.232 0.549 0.198 1.117 0.335 1.696 0.408h0.232 0.224c0.609-0.046 1.211-0.164 1.792-0.352 0.329-0.04 0.655-0.101 0.976-0.184 1.083-0.385 2.069-1.002 2.888-1.808l45.264-45.248c3.069-3.178 2.982-8.242-0.196-11.312-3.1-2.994-8.015-2.994-11.116 0l-31.976 31.952c-5.715-114.67-100.27-204.76-215.08-204.93-0.2-8e-3 -0.368-0.112-0.568-0.112s-0.368 0.104-0.568 0.112c-118.85 0.163-215.16 96.47-215.32 215.32 0 0.2-0.112 0.368-0.112 0.568s0.104 0.368 0.112 0.568c0.199 115.92 91.939 210.97 207.78 215.28h0.296c4.299-1e-3 7.829-3.4 7.992-7.696z"/>
			<path d="m323.48 108.52c-3.124-3.123-8.188-3.123-11.312 0l-85.968 85.96c-6.495-2.896-13.914-2.896-20.408 0l-40.704-40.704c-3.178-3.069-8.243-2.981-11.312 0.197-2.994 3.1-2.994 8.015 0 11.115l40.624 40.624c-5.704 11.94-0.648 26.244 11.293 31.947 9.165 4.378 20.095 2.501 27.275-4.683 7.219-7.158 9.078-18.118 4.624-27.256l85.888-85.888c3.123-3.124 3.123-8.188 0-11.312zm-101.82 113.13-2e-3 2e-3c-3.164 3.025-8.148 3.025-11.312 0-3.125-3.124-3.125-8.189-2e-3 -11.314 3.124-3.125 8.189-3.125 11.314-2e-3 3.125 3.124 3.125 8.19 2e-3 11.314z"/>
		
	
















</svg>
