<svg xmlns="http://www.w3.org/2000/svg" height="682.667" viewBox="0 0 512 512" width="682.667" xmlns:v="https://vecta.io/nano"><path d="M453.95 74.05c0 17.676-14.328 32-32 32s-32-14.324-32-32 14.324-32 32-32 32 14.328 32 32zm0 0" fill="#f5737f"/><path d="M122.05 437.95c0 17.672-14.324 32-32 32s-32-14.328-32-32 14.328-32 32-32 32 14.324 32 32zm0 0" fill="#d8ec84"/><path d="M400.836 224.645c-3.812-17.73-10.79-34.285-20.32-49.035l19.16-19.164-44.23-44.195-19.145 19.145c-14.75-9.53-31.305-16.508-49.035-20.32V84h-62.527v27.074a147.37 147.37 0 0 0-49.039 20.32l-19.145-19.145-44.23 44.195 19.16 19.164c-9.53 14.75-16.508 31.305-20.32 49.035H84.016l-.035 62.527h27.184c3.81 17.734 10.785 34.29 20.32 49.04l-19.234 19.234 44.2 44.23 19.25-19.25c14.75 9.535 31.305 16.512 49.04 20.32V428h62.527v-27.254c17.73-3.81 34.285-10.785 49.04-20.32l19.25 19.25 44.195-44.23-19.234-19.234c9.535-14.75 16.512-31.305 20.32-49.04h27.184v-62.527zM256 328.63c-40.113 0-72.63-32.516-72.63-72.63s32.516-72.63 72.63-72.63 72.63 32.516 72.63 72.63-32.516 72.63-72.63 72.63zm0 0" fill="#91def5"/><path d="M90.05 395.95c-7.168 0-14.06 1.8-20.172 5.148C37.676 359.816 20 308.535 20 256 20 125.867 125.867 20 256 20c15.82 0 31.633 1.574 47 4.68a10 10 0 0 0 11.78-7.82c1.092-5.414-2.406-10.687-7.82-11.785C290.293 1.707 273.148 0 256 0 187.62 0 123.332 26.63 74.98 74.98S0 187.62 0 256c0 57.52 19.53 113.652 55.1 158.652-4.578 6.84-7.04 14.88-7.04 23.297a41.71 41.71 0 0 0 12.305 29.695 41.71 41.71 0 0 0 29.695 12.305 41.72 41.72 0 0 0 29.7-12.305 41.72 41.72 0 0 0 12.3-29.7 41.71 41.71 0 0 0-12.301-29.695 41.72 41.72 0 0 0-29.699-12.301zm15.555 57.555c-4.152 4.156-9.68 6.445-15.555 6.445a21.85 21.85 0 0 1-22-22c0-5.88 2.3-11.402 6.445-15.56a21.84 21.84 0 0 1 15.555-6.441c5.875 0 11.398 2.3 15.555 6.44a21.84 21.84 0 0 1 6.445 15.56 21.85 21.85 0 0 1-6.445 15.555zm351.297-356.17c10.87-16.3 9.125-38.605-5.254-52.984-7.934-7.93-18.48-12.3-29.7-12.3s-21.766 4.37-29.7 12.3a41.72 41.72 0 0 0-12.301 29.699 41.72 41.72 0 0 0 12.301 29.699 41.72 41.72 0 0 0 29.699 12.301c7.168 0 14.06-1.8 20.172-5.148C474.324 152.188 492 203.465 492 256c0 130.133-105.867 236-236 236-15.664 0-31.328-1.543-46.55-4.6a10.01 10.01 0 0 0-11.77 7.844c-1.082 5.418 2.43 10.684 7.844 11.77C222.035 510.324 239.02 512 256 512c68.38 0 132.668-26.63 181.02-74.98S512 324.38 512 256c0-57.523-19.535-113.66-55.098-158.664zm-50.508-7.727c-4.156-4.156-6.445-9.68-6.445-15.56a21.85 21.85 0 0 1 6.445-15.555c4.152-4.156 9.68-6.445 15.555-6.445a21.86 21.86 0 0 1 15.559 6.445c8.574 8.578 8.574 22.535 0 31.113-4.156 4.152-9.684 6.44-15.56 6.44a21.85 21.85 0 0 1-15.555-6.441zm0 0"/><path d="M214.734 428c0 5.523 4.48 10 10 10h62.527a10 10 0 0 0 10-10v-19.387a156.58 156.58 0 0 0 37.53-15.555l13.688 13.688a10 10 0 0 0 7.074 2.93c2.648 0 5.195-1.055 7.07-2.934l44.195-44.227c3.902-3.906 3.902-10.238 0-14.14l-13.672-13.672a156.59 156.59 0 0 0 15.555-37.53h19.313a10 10 0 0 0 10-10v-62.527a10 10 0 0 0-10-10H408.7a156.62 156.62 0 0 0-15.551-37.527l13.598-13.598a10.01 10.01 0 0 0 2.93-7.074 10.03 10.03 0 0 0-2.934-7.074l-44.23-44.195c-3.902-3.902-10.234-3.902-14.14.004l-13.578 13.582a156.59 156.59 0 0 0-37.53-15.555V84a10 10 0 0 0-10-10h-62.527c-5.52 0-10 4.477-10 10v19.2c-13.145 3.535-25.715 8.746-37.527 15.55l-13.582-13.582c-3.902-3.902-10.234-3.906-14.14-.004l-44.227 44.2c-1.88 1.875-2.934 4.418-2.934 7.07a10.01 10.01 0 0 0 2.93 7.074l13.598 13.598c-6.805 11.813-12.016 24.38-15.555 37.527H84.02a10 10 0 0 0-10 9.996l-.035 62.527a9.99 9.99 0 0 0 2.926 7.074 10 10 0 0 0 7.074 2.93h19.313a156.58 156.58 0 0 0 15.555 37.53l-13.672 13.672a10 10 0 0 0 0 14.14l44.195 44.227c1.875 1.875 4.418 2.934 7.07 2.934h.004a10 10 0 0 0 7.07-2.93l13.684-13.687c11.816 6.805 24.387 12.016 37.53 15.555zm-33.6-55.973c-3.957-2.56-9.164-2.004-12.5 1.328L156.45 385.53l-30.06-30.082 12.164-12.168a10 10 0 0 0 1.328-12.496 136.78 136.78 0 0 1-18.94-45.715c-.992-4.605-5.062-7.898-9.777-7.898H93.988l.023-42.527h17.152a10 10 0 0 0 9.777-7.898c3.5-16.3 9.875-31.68 18.94-45.7a10 10 0 0 0-1.328-12.496l-12.086-12.1 30.082-30.06 12.074 12.078a10.01 10.01 0 0 0 12.5 1.328 136.82 136.82 0 0 1 45.711-18.941c4.605-.992 7.898-5.066 7.898-9.777V94h42.527v17.074c0 4.715 3.3 8.8 7.898 9.777 16.3 3.504 31.684 9.875 45.7 18.94a9.99 9.99 0 0 0 12.496-1.328l12.078-12.074 30.082 30.06-12.086 12.086a10 10 0 0 0-1.328 12.5 136.84 136.84 0 0 1 18.94 45.71c.988 4.6 5.063 7.898 9.777 7.898h17.184v42.527h-17.184c-4.715 0-8.785 3.293-9.777 7.898a136.87 136.87 0 0 1-18.94 45.71 10 10 0 0 0 1.328 12.5l12.164 12.164-30.06 30.082-12.176-12.172a10 10 0 0 0-12.5-1.328 136.84 136.84 0 0 1-45.71 18.94 10 10 0 0 0-7.898 9.777V418H234.73v-17.254a10.01 10.01 0 0 0-7.898-9.777c-16.3-3.5-31.68-9.875-45.7-18.94zM338.63 256c0-45.562-37.066-82.63-82.63-82.63s-82.63 37.066-82.63 82.63 37.066 82.63 82.63 82.63 82.63-37.066 82.63-82.63zm-145.258 0c0-34.535 28.094-62.63 62.63-62.63s62.63 28.098 62.63 62.63-28.094 62.63-62.63 62.63-62.63-28.094-62.63-62.63zm0 0"/><path d="M348.078 37.82a10.07 10.07 0 0 0 7.07-2.93 10.12 10.12 0 0 0 2.93-7.082 10.1 10.1 0 0 0-2.93-7.07 10.07 10.07 0 0 0-7.07-2.93 10.05 10.05 0 0 0-7.066 2.93c-1.863 1.87-2.934 4.44-2.934 7.07 0 2.64 1.07 5.2 2.934 7.082a10.05 10.05 0 0 0 7.066 2.93zM164.36 474.36a10.08 10.08 0 0 0-10 10 10.06 10.06 0 0 0 2.93 7.07 10.08 10.08 0 0 0 7.07 2.93 10.08 10.08 0 0 0 10-10 10.08 10.08 0 0 0-10-10zm0 0"/></svg>