<svg viewBox="0 -121 512 512" xmlns="http://www.w3.org/2000/svg"><path d="M457.742 95.48C510.722 23.754 498.972 22.41 512 0H410.473s-7.215 25.05-9.418 29.535c-19.5 39.66-63.239 99.168-89.692 105.25-26.047 5.992-22.59-55.562-20.984-82.226 1.512-24.715 1.254-33.364.527-37.633-1.062-6.238-6.297-10.79-12.578-11.582-12.95-1.64-36.445-3.961-62.758-2.742l-23.539.78c9.282 20.763 15.551 14.4 18.969 38.419 3.86 28.12 2.34 96.547-25.355 96.547C141.246 136.348 91.41 3.004 89.825 0H0l8.219 20.566c66.238 165.82 149.082 242.621 262.43 249.008l14.75.426 1.054-14.324c1.594-22.121 12.692-53.965 32.375-53.965 29.082 0 37.485 8.469 56.664 32.168C393.934 256.602 406.641 270 436.398 270H512l-10.781-21.68c-16.836-33.8-50.606-62.777-63.793-79.586-4.778-6.328-9.48-16.332-4.613-28.433 3.98-10.54 15.832-32.52 24.93-44.82zm0 0"/></svg>